<?xml version="1.0" encoding="UTF-8" standalone="no"?>
<!DOCTYPE svg PUBLIC "-//W3C//DTD SVG 1.1//EN" "http://www.w3.org/Graphics/SVG/1.1/DTD/svg11.dtd">
<svg width="100%" height="100%" viewBox="0 0 1055 1740" version="1.1" xmlns="http://www.w3.org/2000/svg" xmlns:xlink="http://www.w3.org/1999/xlink" xml:space="preserve" xmlns:serif="http://www.serif.com/" style="fill-rule:evenodd;clip-rule:evenodd;stroke-linejoin:round;stroke-miterlimit:2;">
    <g transform="matrix(1,0,0,1,-560.761,-438.278)">
        <g transform="matrix(4.16667,0,0,4.16667,0,0)">
            <g transform="matrix(1,0,0,1,158.14,227.23)">
                <path d="M0,-56.407L0,-59.499C0,-64.197 -1.658,-66.325 -4.606,-66.763L-7.866,-66.93C-18.228,-67.544 -23.557,-74.26 -23.557,-85.631L-23.557,-103.283C-23.557,-115.222 -17.694,-122.043 -6.289,-122.043C5.117,-122.043 10.979,-115.222 10.979,-103.283L10.979,-100.938L-0.106,-100.938L-0.106,-104.029C-0.106,-109.36 -2.238,-111.383 -5.97,-111.383C-9.7,-111.383 -12.473,-109.824 -12.473,-104.495L-12.473,-84.885C-12.473,-80.186 -10.813,-78.058 -7.866,-77.62L-4.606,-77.454C5.755,-76.838 11.086,-70.124 11.086,-58.753L11.086,-56.407L10.979,46.878C10.979,58.814 5.117,65.636 -6.29,65.636C-17.695,65.636 -23.557,58.814 -23.557,46.878L-23.557,44.53L-12.473,44.53L-12.473,47.623C-12.473,52.952 -10.34,54.977 -6.609,54.977C-2.878,54.977 -0.106,53.417 -0.106,48.087L0,-56.407Z" style="fill:rgb(38,34,97);fill-rule:nonzero;"/>
            </g>
        </g>
        <g transform="matrix(4.16667,0,0,4.16667,0,0)">
            <g transform="matrix(1,0,0,1,0,-249.094)">
                <rect x="177.563" y="355.134" width="11.726" height="186.826" style="fill:rgb(38,34,97);"/>
            </g>
        </g>
        <g transform="matrix(4.16667,0,0,4.16667,0,0)">
            <g transform="matrix(1,0,0,1,208.474,228.373)">
                <path d="M0,-57.84L-0.214,-57.84L-0.214,64.493L-10.767,64.493L-10.767,-122.333L3.945,-122.333L15.776,-20.36L15.989,-20.36L15.989,-122.333L26.435,-122.333L26.435,64.493L14.39,64.493L0,-57.84Z" style="fill:rgb(38,34,97);fill-rule:nonzero;"/>
            </g>
        </g>
        <g transform="matrix(4.16667,0,0,4.16667,0,0)">
            <g transform="matrix(1,0,0,1,261.86,248.845)">
                <path d="M0,-98.782L16.415,-98.782L16.415,26.114C16.415,38.053 10.444,44.876 -1.067,44.876C-12.579,44.876 -18.549,38.053 -18.549,26.114L-18.549,-124.898C-18.549,-136.838 -12.579,-143.658 -1.067,-143.658C10.444,-143.658 16.415,-136.838 16.415,-124.898L16.415,-117.649L5.328,-117.649L5.328,-125.644C5.328,-130.975 2.982,-132.998 -0.748,-132.998C-4.479,-132.998 -6.822,-130.975 -6.822,-125.644L-6.822,26.859C-6.822,32.19 -4.479,34.108 -0.748,34.108C2.982,34.108 5.328,32.19 5.328,26.859L5.328,-88.123L0,-88.123L0,-98.782Z" style="fill:rgb(38,34,97);fill-rule:nonzero;"/>
            </g>
        </g>
        <g transform="matrix(4.16667,0,0,4.16667,0,0)">
            <g transform="matrix(1,0,0,1,0,-249.094)">
                <rect x="286.79" y="355.134" width="11.727" height="186.826" style="fill:rgb(38,34,97);"/>
            </g>
        </g>
        <g transform="matrix(4.16667,0,0,4.16667,0,0)">
            <g transform="matrix(1,0,0,1,317.8,228.373)">
                <path d="M0,-57.84L-0.213,-57.84L-0.213,64.493L-10.769,64.493L-10.769,-122.333L3.945,-122.333L15.776,-20.36L15.987,-20.36L15.987,-122.333L26.436,-122.333L26.436,64.493L14.39,64.493L0,-57.84Z" style="fill:rgb(38,34,97);fill-rule:nonzero;"/>
            </g>
        </g>
        <g transform="matrix(4.16667,0,0,4.16667,0,0)">
            <g transform="matrix(1,0,0,1,371.25,275.792)">
                <path d="M0,-32.516L0,-21.858L5.329,-21.858L5.329,0L16.414,0L16.414,-32.516L0,-32.516Z" style="fill:rgb(38,34,97);fill-rule:nonzero;"/>
            </g>
        </g>
        <g transform="matrix(4.16667,0,0,4.16667,0,0)">
            <g transform="matrix(1,0,0,1,376.573,123.116)">
                <path d="M0,152.676C-0.027,157.936 -2.364,159.837 -6.07,159.837C-9.802,159.837 -12.146,157.919 -12.146,152.588L-12.146,0.085C-12.146,-5.246 -9.802,-7.269 -6.07,-7.269C-2.341,-7.269 0.006,-5.246 0.006,0.085L0.006,8.08L11.091,8.08L11.091,0.831C11.091,-11.109 5.121,-17.929 -6.391,-17.929C-17.901,-17.929 -23.872,-11.109 -23.872,0.831L-23.872,151.843C-23.872,163.782 -17.901,170.605 -6.391,170.605C4.848,170.605 10.787,164.09 11.064,152.676L0,152.676Z" style="fill:rgb(38,34,97);fill-rule:nonzero;"/>
            </g>
        </g>
        <g transform="matrix(4.16667,0,0,4.16667,0,0)">
            <g transform="matrix(1,0,0,1,0,79.25)">
                <rect x="329.842" y="225.107" width="11.724" height="118.536" style="fill:rgb(38,34,97);"/>
            </g>
        </g>
        <g transform="matrix(4.16667,0,0,4.16667,0,0)">
            <g transform="matrix(1,0,0,1,360.752,402.32)">
                <path d="M0,-77.391L-0.214,-77.391L-0.214,20.572L-10.767,20.572L-10.767,-97.963L3.941,-97.963L15.776,-20.357L15.987,-20.357L15.987,-97.963L26.435,-97.963L26.435,20.572L14.391,20.572L0,-77.391Z" style="fill:rgb(38,34,97);fill-rule:nonzero;"/>
            </g>
        </g>
        <g transform="matrix(4.16667,0,0,4.16667,0,0)">
            <g transform="matrix(1,0,0,1,255.331,412.232)">
                <path d="M0,-97.214L0,-63.318L4.583,-63.318C8.953,-63.318 11.616,-65.234 11.616,-71.206L11.616,-89.54C11.616,-94.869 9.805,-97.214 5.648,-97.214L0,-97.214ZM12.791,10.661C12.15,8.745 11.724,7.573 11.724,1.495L11.724,-43.171C11.724,-50.101 9.379,-52.657 4.05,-52.657L0,-52.657L0,10.661L-11.727,10.661L-11.727,-107.875L5.968,-107.875C18.118,-107.875 23.343,-102.226 23.343,-90.714L23.343,-73.87C23.343,-66.194 20.891,-61.29 15.668,-58.841L15.668,-58.628C21.531,-56.175 23.449,-50.634 23.449,-42.851L23.449,1.6C23.449,5.225 23.556,7.893 24.729,10.661L12.791,10.661Z" style="fill:rgb(38,34,97);fill-rule:nonzero;"/>
            </g>
        </g>
        <g transform="matrix(4.16667,0,0,4.16667,0,0)">
            <g transform="matrix(1,0,0,1,295.451,328.021)">
                <path d="M0,71.208L15.692,71.208L7.954,-10.445L7.738,-10.445L0,71.208ZM28.953,94.872L18.218,94.872L16.193,81.335L-0.395,81.335L-2.417,94.872L-12.087,94.872L-0.147,-23.664L17.014,-23.664L28.953,94.872Z" style="fill:rgb(38,34,97);fill-rule:nonzero;"/>
            </g>
        </g>
        <g transform="matrix(4.16667,0,0,4.16667,0,0)">
            <g transform="matrix(1,0,0,1,150.779,354.627)">
                <path d="M0,-4.896L-0.152,-4.388C-2.97,-4.001 -4.222,-3.404 -4.222,-3.404L-5.264,-0.074L-5.266,-0.074C-5.351,-0.07 -5.438,-0.064 -5.521,-0.06C-5.761,-0.042 -6.001,-0.023 -6.243,0.012L-6.247,0.012C-7.179,-0.744 -8.58,-2.093 -8.243,-3.189C-7.257,-4.017 -5.699,-4.49 -3.81,-4.716C-2.648,-4.857 -1.359,-4.908 0,-4.896" style="fill:rgb(38,34,97);fill-rule:nonzero;"/>
            </g>
        </g>
        <g transform="matrix(4.16667,0,0,4.16667,0,0)">
            <g transform="matrix(1,0,0,1,148.559,361.754)">
                <path d="M0,-4.738L-0.188,-4.125C-2.867,-3.863 -4.236,-3.402 -4.236,-3.402L-5.3,-0.009C-5.566,-0.002 -5.837,0.018 -6.102,0.045C-7.054,-0.39 -8.587,-1.359 -8.116,-2.91C-7.506,-3.857 -5.982,-4.402 -3.851,-4.631C-2.722,-4.752 -1.424,-4.783 0,-4.738" style="fill:rgb(38,34,97);fill-rule:nonzero;"/>
            </g>
        </g>
        <g transform="matrix(4.16667,0,0,4.16667,0,0)">
            <g transform="matrix(1,0,0,1,146.342,368.137)">
                <path d="M0,-3.858L-0.31,-2.842C-2.71,-2.68 -4.315,-2.462 -4.315,-2.462L-5.136,0.154C-5.136,0.154 -8.2,-0.924 -7.589,-3.118C-6.771,-3.628 -5.482,-3.893 -3.845,-3.962L-3.843,-3.962C-2.71,-4.012 -1.416,-3.973 0,-3.858" style="fill:rgb(38,34,97);fill-rule:nonzero;"/>
            </g>
        </g>
        <g transform="matrix(4.16667,0,0,4.16667,0,0)">
            <g transform="matrix(1,0,0,1,144.043,375.312)">
                <path d="M0,-3.496L-0.303,-2.506C-2.719,-2.428 -4.321,-2.281 -4.321,-2.281L-5.08,0.143C-5.08,0.143 -7.706,-0.801 -7.272,-2.808C-6.5,-3.248 -5.351,-3.488 -3.917,-3.57L-3.916,-3.57C-2.774,-3.639 -1.455,-3.607 0,-3.496" style="fill:rgb(38,34,97);fill-rule:nonzero;"/>
            </g>
        </g>
        <g transform="matrix(4.16667,0,0,4.16667,0,0)">
            <g transform="matrix(1,0,0,1,209.786,470.202)">
                <path d="M0,-119.483C1.953,-118.458 5.416,-116.655 8.734,-114.797L8.738,-114.797C8.97,-114.667 9.189,-114.536 9.418,-114.405C11.296,-112.958 12.823,-111.462 13.375,-110.18L13.375,-110.178L12.524,-107.2L12.524,-107.196L12.49,-107.075C12.472,-107.088 12.463,-107.104 12.444,-107.118L12.444,-107.122C11.922,-107.565 11.286,-108.022 10.525,-108.495C6.43,-111.032 1.646,-113.256 -1.287,-115.045C-4.223,-116.837 -3.007,-121.059 0,-119.483M-10.396,-135.922C-14.506,-137.592 -23.855,-142.124 -33.783,-144.032C-36.48,-144.547 -42.023,-145.22 -47.51,-145.311L-48.224,-145.317L-46.846,-149.827L-46.653,-150.463C-46.633,-150.463 -46.616,-150.462 -46.598,-150.462L-46.768,-149.905L-48.143,-145.396L-47.432,-145.388L-46.059,-149.929C-44.016,-149.975 -41.403,-149.93 -38.156,-149.75C-37.808,-149.703 -37.454,-149.661 -37.114,-149.609C-22.352,-147.508 -12.971,-142.727 -8.393,-140.694C-4.956,-139.167 -6.401,-134.297 -10.396,-135.922M-12.963,-128.145C-17.072,-129.817 -26.42,-134.35 -36.347,-136.258C-39.163,-136.803 -44.01,-137.637 -49.795,-137.751C-50.036,-137.754 -50.283,-137.756 -50.531,-137.756L-49.146,-142.286L-48.974,-142.854C-48.955,-142.852 -48.937,-142.852 -48.918,-142.85L-49.065,-142.37L-50.449,-137.838C-50.202,-137.837 -49.956,-137.835 -49.713,-137.827L-48.332,-142.403C-46.93,-142.452 -45.346,-142.44 -43.606,-142.333C-43.076,-142.266 -42.526,-142.206 -42.017,-142.141C-41.854,-142.122 -41.694,-142.1 -41.529,-142.081L-41.518,-142.081C-41.454,-142.069 -41.382,-142.061 -41.316,-142.051C-25.611,-140.09 -15.705,-135.028 -10.955,-132.922C-7.518,-131.391 -8.969,-126.524 -12.963,-128.145M-14.883,-120.708C-18.993,-122.378 -28.342,-126.909 -38.269,-128.819C-41.032,-129.35 -46.353,-130.229 -51.979,-130.518C-52.229,-130.534 -52.476,-130.546 -52.727,-130.553L-51.397,-134.917L-51.242,-135.422C-51.223,-135.422 -51.206,-135.419 -51.187,-135.417L-51.316,-134.993L-52.646,-130.635C-52.396,-130.624 -52.148,-130.612 -51.898,-130.598L-50.556,-135.042C-49.516,-135.092 -48.379,-135.102 -47.204,-135.083C-46.918,-135.053 -46.633,-135.022 -46.354,-134.991L-46.353,-134.991C-46.351,-134.989 -46.348,-134.989 -46.342,-134.991L-46.338,-134.991C-46.335,-134.989 -46.33,-134.989 -46.324,-134.989C-45.253,-134.872 -44.216,-134.743 -43.237,-134.612C-27.533,-132.649 -17.626,-127.59 -12.877,-125.475C-9.44,-123.954 -10.889,-119.081 -14.883,-120.708M-17.166,-112.934C-21.274,-114.606 -30.625,-119.139 -40.551,-121.049C-43.346,-121.59 -48.769,-122.837 -54.181,-123.233C-54.435,-123.253 -54.69,-123.27 -54.942,-123.288L-53.597,-127.694L-53.504,-128.004C-53.485,-128.001 -53.466,-128.001 -53.451,-128.001L-53.517,-127.774L-54.862,-123.368C-54.609,-123.348 -54.354,-123.331 -54.101,-123.311L-52.739,-127.813C-52.402,-127.825 -52.033,-127.827 -51.675,-127.837C-51.458,-127.815 -51.24,-127.796 -51.023,-127.774L-51.006,-127.774C-49.101,-127.565 -47.229,-127.309 -45.521,-127.094C-29.814,-125.128 -19.909,-119.817 -15.162,-117.708C-11.723,-116.18 -13.174,-111.313 -17.166,-112.934M-19.382,-105.204C-23.496,-106.872 -32.845,-111.409 -42.77,-113.313C-45.558,-113.85 -50.883,-114.893 -56.567,-115.327C-56.829,-115.35 -57.092,-115.368 -57.356,-115.381L-55.915,-120.096L-55.884,-120.202C-55.865,-120.2 -55.847,-120.2 -55.829,-120.196L-55.835,-120.176L-57.276,-115.465C-57.013,-115.444 -56.747,-115.428 -56.487,-115.405L-55.057,-120.143C-55.017,-120.141 -54.975,-120.139 -54.933,-120.135L-54.92,-120.135C-52.5,-119.95 -50.025,-119.651 -47.741,-119.364C-32.031,-117.397 -22.127,-112.085 -17.38,-109.977C-13.943,-108.446 -15.39,-103.583 -19.382,-105.204M-49.797,-89.967C-52.701,-90.745 -58.335,-91.831 -63.477,-92.452C-63.757,-92.485 -64.04,-92.52 -64.321,-92.553L-62.95,-97.045L-62.753,-97.69C-62.737,-97.69 -62.717,-97.69 -62.701,-97.686L-62.871,-97.126L-64.242,-92.628C-63.96,-92.598 -63.677,-92.567 -63.395,-92.53L-62.01,-97.122C-60.698,-97.106 -59.296,-97.038 -57.882,-96.94C-57.616,-96.893 -57.356,-96.852 -57.087,-96.803C-57.083,-96.803 -57.079,-96.803 -57.074,-96.801C-55.736,-96.557 -54.373,-96.292 -52.999,-96.012C-39.815,-93.321 -29.152,-88.989 -24.407,-86.878C-20.971,-85.35 -22.415,-80.481 -26.411,-82.102C-30.521,-83.778 -39.546,-87.223 -49.797,-89.967M-34.415,-61.915C-34.5,-61.645 -34.935,-61.335 -35.879,-61.335C-36.634,-61.335 -37.95,-61.538 -39.931,-62.518C-46.603,-65.813 -49.302,-68.614 -51.063,-70.917C-53.75,-74.428 -53.95,-77.631 -53.826,-80.034C-53.609,-84.143 -52.455,-84.143 -51.833,-84.143C-51.7,-84.143 -51.553,-84.131 -51.387,-84.114C-49.98,-83.93 -48.441,-82.249 -48.175,-78.917C-47.858,-74.962 -44.776,-69.788 -41.3,-67.378C-39.243,-65.948 -38.2,-65.204 -37.28,-64.547C-36.615,-64.071 -35.992,-63.624 -35.074,-62.985C-34.579,-62.641 -34.319,-62.221 -34.415,-61.915M-41.626,-59.87C-42.141,-59.87 -43.286,-60.006 -45.153,-60.94C-49.431,-63.079 -58.305,-69.354 -60.444,-74.848C-61.525,-77.618 -61.22,-81.938 -61.077,-84.016L-61.056,-84.294C-60.975,-85.479 -60.218,-85.901 -59.536,-85.901C-59.028,-85.901 -58.527,-85.684 -58.161,-85.301C-57.733,-84.856 -57.523,-84.229 -57.554,-83.487L-57.573,-83.051C-57.736,-79.413 -58.005,-73.327 -53.118,-68.231C-48.768,-63.69 -44.804,-61.879 -42.436,-60.797C-42.091,-60.641 -41.785,-60.504 -41.522,-60.376C-41.188,-60.212 -41.038,-60.057 -40.983,-59.977C-41.065,-59.934 -41.262,-59.87 -41.626,-59.87M-48.941,-60.483C-52.176,-62.176 -62.08,-68.227 -65.082,-73.544C-67.494,-77.819 -67.112,-82.165 -66.832,-85.333C-66.725,-86.53 -66.047,-87.065 -65.421,-87.065C-65.084,-87.065 -64.76,-86.919 -64.508,-86.647C-64.108,-86.221 -63.916,-85.524 -63.974,-84.684C-63.99,-84.415 -64.01,-84.135 -64.033,-83.848C-64.293,-80.245 -64.65,-75.301 -61.541,-71.004C-58.226,-66.422 -49.929,-61.012 -47.266,-59.815C-47.142,-59.758 -47.034,-59.702 -46.934,-59.653C-47.439,-59.788 -48.119,-60.053 -48.941,-60.483M-67.518,-72.292C-69.969,-75.241 -71.094,-79.876 -70.855,-86.075C-70.815,-87.17 -70.359,-87.762 -69.949,-87.762C-69.783,-87.762 -69.646,-87.657 -69.562,-87.569C-69.4,-87.401 -69.028,-86.874 -69.081,-85.59L-69.106,-84.983C-69.269,-81.245 -69.543,-74.983 -66.526,-71.444C-65.842,-70.649 -65.121,-69.872 -64.378,-69.129C-65.538,-70.139 -66.619,-71.204 -67.518,-72.292M-60.601,-104.741L-60.432,-105.297C-60.415,-105.294 -60.397,-105.294 -60.379,-105.292L-60.52,-104.823L-61.921,-100.237C-61.647,-100.206 -61.373,-100.176 -61.096,-100.141L-59.678,-104.84C-58.878,-104.85 -58.034,-104.835 -57.19,-104.813C-57.007,-104.786 -56.832,-104.756 -56.649,-104.729C-56.643,-104.725 -56.639,-104.725 -56.634,-104.725C-54.769,-104.413 -52.832,-104.044 -50.883,-103.645C-37.698,-100.952 -27.037,-96.62 -22.288,-94.512C-18.855,-92.981 -20.299,-88.114 -24.293,-89.737C-28.405,-91.407 -37.429,-94.858 -47.68,-97.596C-50.547,-98.364 -56.089,-99.438 -61.178,-100.059C-61.453,-100.092 -61.727,-100.126 -62.003,-100.157L-60.601,-104.741ZM-58.23,-112.518L-58.154,-112.768C-58.137,-112.764 -58.119,-112.762 -58.102,-112.76L-58.15,-112.602L-59.589,-107.878C-59.326,-107.85 -59.057,-107.817 -58.789,-107.782L-57.333,-112.604C-57.068,-112.604 -56.775,-112.594 -56.496,-112.587C-56.206,-112.553 -55.92,-112.528 -55.624,-112.485C-55.622,-112.485 -55.616,-112.485 -55.607,-112.483C-53.331,-112.192 -50.922,-111.786 -48.484,-111.28C-35.301,-108.585 -24.637,-104.258 -19.89,-102.147C-16.454,-100.616 -17.902,-95.751 -21.895,-97.374C-26.007,-99.044 -35.029,-102.493 -45.28,-105.231C-48.165,-106.006 -53.754,-107.088 -58.868,-107.704C-59.137,-107.739 -59.405,-107.77 -59.667,-107.801L-58.23,-112.518ZM-49.094,-158.398C-48.267,-159.274 -47.233,-160.021 -46.281,-160.601C-46.595,-160.205 -46.911,-159.755 -47.21,-159.259C-47.407,-158.937 -47.598,-158.605 -47.788,-158.275C-48.891,-156.375 -49.933,-154.578 -51.508,-154.344C-51.596,-154.331 -51.675,-154.323 -51.742,-154.323C-51.806,-154.323 -51.846,-154.331 -51.871,-154.332C-51.914,-154.757 -50.988,-156.389 -49.094,-158.398M-44.453,-159.441C-42.957,-161.791 -40.953,-162.934 -38.097,-163.644C-39.064,-162.934 -39.745,-162.16 -40.451,-161.363L-40.567,-161.23C-41.448,-160.234 -42.078,-159.05 -42.636,-158.008C-43.646,-156.109 -44.333,-154.943 -45.639,-154.919L-45.678,-154.917C-45.964,-154.917 -46.145,-154.982 -46.213,-155.103C-46.319,-155.302 -46.518,-156.206 -44.453,-159.441M-28.498,-164.266C-28.41,-164.266 -28.324,-164.266 -28.237,-164.263C-30.141,-163.661 -31.959,-162.521 -33.489,-160.205C-35.552,-157.076 -36.93,-155.16 -39.114,-155.16C-39.309,-155.16 -39.515,-155.175 -39.726,-155.203C-40.23,-155.274 -40.309,-155.446 -40.334,-155.499C-40.469,-155.789 -40.442,-156.671 -38.75,-159.322C-36.63,-162.651 -33.276,-164.266 -28.498,-164.266M-11.738,-160.587C-12.91,-160.737 -13.994,-160.81 -15.008,-160.81C-19.752,-160.81 -22.234,-159.103 -24.03,-157.433L-24.538,-156.96C-26.542,-155.089 -27.645,-154.056 -29.639,-154.056C-30.296,-154.056 -31.047,-154.171 -31.937,-154.4C-32.543,-154.561 -32.885,-154.856 -32.983,-155.299C-33.261,-156.565 -31.713,-158.974 -29.38,-160.897C-27.882,-162.135 -25.376,-162.816 -22.322,-162.816C-19.917,-162.816 -16.304,-162.389 -11.738,-160.587M-72.113,-75.727C-73.466,-79.26 -73.843,-81.946 -73.607,-86.378C-73.556,-87.348 -73.32,-87.704 -73.232,-87.774C-73.144,-87.717 -72.859,-87.303 -72.9,-86.428C-72.908,-86.221 -72.923,-85.975 -72.939,-85.696C-73.091,-83.208 -73.386,-78.327 -71.482,-74.42C-71.73,-74.85 -71.945,-75.284 -72.113,-75.727M19.901,-122.905C22.286,-132.546 16.045,-146.04 2.11,-154.917C-10.524,-162.964 -33.209,-172.027 -49.626,-160.07C-49.93,-159.853 -50.222,-159.622 -50.506,-159.393C-53.73,-156.74 -55.8,-153.184 -57.93,-147.728C-57.907,-147.752 -57.876,-147.768 -57.852,-147.792C-58.288,-146.503 -57.334,-145.434 -56.468,-144.764C-56.134,-144.858 -55.798,-144.921 -55.464,-144.973C-55.293,-144.997 -55.122,-145.022 -54.947,-145.046L-53.892,-148.409C-53.892,-148.409 -53.633,-149.224 -50.002,-149.667L-50.025,-149.597L-51.344,-145.266C-52.631,-145.216 -53.871,-145.116 -55.025,-144.965L-55.027,-144.965C-55.203,-144.944 -55.372,-144.917 -55.544,-144.893C-55.878,-144.844 -56.216,-144.778 -56.548,-144.684C-57.384,-144.469 -58.208,-144.139 -58.923,-143.682C-59.332,-143.421 -59.638,-143.028 -59.795,-142.571C-59.964,-142.069 -60.137,-141.561 -60.313,-141.032C-60.29,-141.047 -60.261,-141.059 -60.238,-141.079C-60.667,-139.645 -59.245,-138.196 -58.294,-137.415L-58.292,-137.415C-58.206,-137.43 -58.118,-137.44 -58.03,-137.452C-57.788,-137.477 -57.547,-137.506 -57.303,-137.534L-57.301,-137.534L-56.114,-141.321C-56.114,-141.321 -54.784,-141.751 -52.318,-142.081L-52.338,-142.008L-53.65,-137.713C-54.87,-137.667 -56.115,-137.579 -57.38,-137.452L-57.384,-137.452C-57.627,-137.43 -57.868,-137.397 -58.11,-137.37C-58.197,-137.362 -58.285,-137.346 -58.372,-137.335L-58.374,-137.335C-59.399,-137.182 -60.452,-136.815 -61.349,-136.26C-61.778,-135.997 -62.099,-135.587 -62.256,-135.106C-62.405,-134.655 -62.553,-134.198 -62.705,-133.723C-62.774,-133.518 -62.844,-133.309 -62.907,-133.1C-62.883,-133.124 -62.853,-133.135 -62.83,-133.161C-63.133,-132.12 -61.527,-131.03 -60.487,-130.452L-60.486,-130.452C-60.307,-130.477 -60.13,-130.501 -59.952,-130.518C-59.8,-130.528 -59.645,-130.546 -59.488,-130.553L-58.403,-134.018C-58.403,-134.018 -56.961,-134.383 -54.573,-134.682L-54.595,-134.612L-55.815,-130.616C-57.087,-130.616 -58.343,-130.571 -59.568,-130.475C-59.725,-130.463 -59.88,-130.448 -60.032,-130.438C-60.21,-130.422 -60.386,-130.397 -60.564,-130.37L-60.569,-130.37C-61.669,-130.198 -62.778,-129.799 -63.675,-129.172C-64.066,-128.901 -64.351,-128.508 -64.49,-128.053C-64.715,-127.309 -64.945,-126.557 -65.172,-125.796C-65.151,-125.819 -65.119,-125.837 -65.096,-125.862C-65.484,-124.508 -64.028,-123.43 -62.993,-122.856C-62.589,-122.95 -62.195,-123.028 -61.827,-123.096L-60.741,-126.557C-60.741,-126.557 -59.415,-127.067 -56.78,-127.444L-56.802,-127.376L-58.03,-123.356C-59.202,-123.333 -60.341,-123.253 -61.417,-123.094C-61.573,-123.073 -61.739,-123.038 -61.907,-123.016C-62.275,-122.95 -62.67,-122.872 -63.074,-122.778C-63.94,-122.571 -64.85,-122.292 -65.625,-121.903C-66.151,-121.637 -66.546,-121.161 -66.711,-120.594C-66.903,-119.928 -67.096,-119.266 -67.287,-118.598C-66.291,-119.434 -64.715,-119.915 -62.807,-120.143C-61.633,-120.286 -60.328,-120.338 -58.955,-120.327L-59.11,-119.807L-60.423,-115.514C-61.719,-115.545 -63.015,-115.524 -64.276,-115.454L-64.279,-115.454C-64.364,-115.448 -64.452,-115.44 -64.537,-115.438C-64.778,-115.417 -65.022,-115.401 -65.265,-115.368L-65.27,-115.368C-66.089,-115.262 -66.905,-115.067 -67.627,-114.743C-68.191,-114.485 -68.601,-113.983 -68.768,-113.387C-68.982,-112.622 -69.195,-111.864 -69.403,-111.114C-68.786,-112.071 -67.247,-112.622 -65.092,-112.852C-63.951,-112.977 -62.638,-113.006 -61.2,-112.963L-61.389,-112.342L-62.69,-108.088C-64.108,-108.186 -65.404,-108.227 -66.494,-108.186L-66.556,-108.186C-66.826,-108.174 -67.099,-108.157 -67.366,-108.126C-68.112,-108.059 -68.834,-107.924 -69.486,-107.667C-70.105,-107.42 -70.566,-106.891 -70.74,-106.247C-70.866,-105.784 -70.988,-105.325 -71.111,-104.874C-70.283,-105.387 -68.98,-105.657 -67.326,-105.727L-67.324,-105.727C-66.18,-105.776 -64.871,-105.737 -63.44,-105.622L-63.754,-104.596L-65.018,-100.446C-66.466,-100.551 -67.788,-100.596 -68.892,-100.551C-68.911,-100.551 -68.93,-100.549 -68.949,-100.549C-69.746,-100.514 -70.543,-100.43 -71.271,-100.231C-71.998,-100.034 -72.554,-99.448 -72.747,-98.717C-72.872,-98.227 -72.995,-97.756 -73.112,-97.307C-72.331,-97.753 -71.17,-97.997 -69.722,-98.079L-69.72,-98.079C-68.566,-98.147 -67.234,-98.116 -65.765,-98.001L-66.069,-97.003L-67.345,-92.829C-68.708,-92.922 -69.956,-92.956 -71.009,-92.919C-71.119,-92.911 -71.234,-92.909 -71.346,-92.901L-71.347,-92.901C-72.423,-92.84 -73.48,-92.672 -74.366,-92.243C-74.399,-92.088 -74.427,-91.96 -74.448,-91.86C-75.075,-88.62 -75.462,-84.942 -75,-81.245C-74.269,-75.417 -71.438,-69.547 -64.137,-65.284C-60.593,-63.213 -56.672,-61.301 -52.142,-59.661C-52.127,-59.651 -52.109,-59.647 -52.093,-59.639C-53.354,-55.67 -55.277,-49.327 -57.04,-42.454C-58.98,-34.883 -55.462,-31.669 -51.016,-29.944L-51.016,-24.294C-51.016,-23.067 -52.008,-22.079 -53.231,-22.079C-54.457,-22.079 -55.449,-21.087 -55.449,-19.862L-55.449,50.328C-55.449,51.552 -54.457,52.544 -53.231,52.544L-29.541,52.544C-28.316,52.544 -27.323,51.552 -27.323,50.328L-27.323,-19.862C-27.323,-21.087 -28.316,-22.079 -29.541,-22.079C-30.766,-22.079 -31.758,-23.067 -31.758,-24.294L-31.758,-26.456C-30.104,-26.878 -28.608,-27.813 -27.323,-29.567C-26.654,-30.481 -25.8,-31.805 -24.844,-33.366C-24.153,-32.756 -23.633,-32.335 -23.633,-31.102C-23.633,-29.577 -24.851,-27.67 -24.055,-26.21C-23.372,-24.948 -22.007,-25.829 -21.913,-26.989C-21.754,-28.899 -23.08,-30.723 -23.025,-32.67C-22.971,-34.561 -22.177,-36.305 -20.979,-37.739C-19.961,-38.963 -19.45,-39.776 -19.142,-41.311C-18.734,-43.557 -17.917,-45.391 -16.795,-47.432L-16.855,-47.376C-15.226,-50.348 -13.844,-52.922 -13.062,-54.391C-12.087,-54.516 -11.19,-54.69 -10.327,-54.881C-5.007,-52.487 -5.659,-45.133 -6.315,-40.504C-6.676,-37.973 -8.276,-32.602 -5.275,-30.963C-4.439,-30.51 -3.184,-30.94 -2.663,-31.635C-1.447,-33.286 -1.777,-36.354 -2.089,-38.21C-2.716,-41.915 -4.204,-45.51 -4.073,-49.315C-4.009,-51.133 -3.172,-52.68 -3.109,-54.499C-2.992,-56.639 -1.693,-58.44 -0.437,-60.118C1.757,-62.424 3.045,-65.098 4.076,-67.592C3.746,-68.327 3.234,-68.989 2.46,-69.626C2.278,-69.78 2.083,-69.922 1.869,-70.079C1.349,-70.444 0.733,-70.809 0.011,-71.186C-4.339,-73.458 -9.251,-75.45 -12.322,-76.989C-15.396,-78.534 -14.532,-82.842 -11.406,-81.524C-9.091,-80.547 -4.686,-78.67 -0.831,-76.774C-0.7,-76.712 -0.581,-76.643 -0.451,-76.581C0.631,-75.641 1.727,-74.587 2.859,-73.348L1.949,-70.157C2.164,-70.006 2.358,-69.858 2.54,-69.708C3.481,-69.682 5.069,-69.842 5.431,-71.112C5.424,-71.145 5.414,-71.174 5.405,-71.204C5.613,-71.838 5.839,-72.536 6.078,-73.299C6.256,-73.866 6.234,-74.477 5.985,-75.014C5.672,-75.696 5.191,-76.319 4.483,-76.93L4.478,-76.93C4.315,-77.077 4.143,-77.219 3.951,-77.366C3.951,-77.368 3.947,-77.368 3.947,-77.368C3.438,-77.753 2.834,-78.137 2.121,-78.542C-2.156,-80.944 -7.001,-83.094 -10.024,-84.729C-13.049,-86.37 -12.047,-90.651 -8.962,-89.229C-6.742,-88.206 -2.575,-86.27 1.143,-84.311C1.145,-84.315 1.145,-84.311 1.147,-84.307C1.327,-84.213 1.494,-84.12 1.671,-84.02C2.932,-83.004 4.074,-81.872 4.937,-80.629L4.031,-77.446C4.223,-77.301 4.395,-77.161 4.559,-77.01L4.563,-77.01C5.525,-76.997 7.265,-77.202 7.783,-78.741C7.777,-78.782 7.763,-78.809 7.757,-78.846C7.986,-79.616 8.117,-80.069 8.333,-80.803C8.458,-81.233 8.464,-81.692 8.343,-82.128C8.11,-82.969 7.667,-83.696 6.895,-84.409L6.892,-84.409C6.669,-84.618 6.42,-84.823 6.138,-85.032C5.614,-85.415 4.984,-85.807 4.229,-86.217C-0.634,-88.86 -4.937,-90.684 -7.973,-92.294C-11.011,-93.905 -10.05,-98.19 -6.956,-96.801C-4.82,-95.844 -0.613,-93.922 3.198,-92.044C3.365,-91.963 3.516,-91.885 3.681,-91.799C5.029,-90.745 6.242,-89.583 7.14,-88.34L6.218,-85.112C6.502,-84.903 6.748,-84.698 6.973,-84.489L6.974,-84.489C8.028,-84.635 9.613,-85.042 9.935,-86.165C9.931,-86.21 9.917,-86.249 9.913,-86.292C10.079,-86.874 10.245,-87.454 10.412,-88.04C10.433,-88.116 10.454,-88.192 10.466,-88.272C10.667,-89.469 10.114,-90.71 8.94,-91.893C8.738,-92.1 8.515,-92.305 8.272,-92.506C7.742,-92.952 7.126,-93.385 6.429,-93.795C1.891,-96.487 -2.701,-98.299 -5.637,-100.092C-8.573,-101.883 -7.354,-106.106 -4.347,-104.534C-2.409,-103.512 1.117,-101.837 4.487,-100.069C4.687,-99.965 4.882,-99.858 5.08,-99.754C6.682,-98.538 8.15,-97.198 9.254,-95.741L8.351,-92.59C8.595,-92.385 8.816,-92.182 9.021,-91.971C9.965,-92.049 11.404,-92.311 11.755,-93.167C11.754,-93.202 11.747,-93.225 11.745,-93.258C12.021,-93.934 12.213,-94.446 12.436,-95.245C12.744,-96.356 12.295,-97.614 11.237,-98.833C10.972,-99.137 10.672,-99.436 10.336,-99.731L10.336,-99.735C9.775,-100.219 9.124,-100.694 8.383,-101.137C3.873,-103.846 -0.495,-105.645 -3.429,-107.432C-6.364,-109.227 -5.149,-113.448 -2.141,-111.876C-0.167,-110.838 3.346,-109.12 6.693,-107.317C6.9,-107.208 7.095,-107.094 7.299,-106.983C8.922,-105.712 10.401,-104.358 11.334,-103.034L10.415,-99.817L10.415,-99.813C10.753,-99.518 11.052,-99.215 11.317,-98.915C12.247,-98.989 13.445,-99.288 13.784,-100.299C13.79,-100.358 13.777,-100.401 13.779,-100.463C14.05,-101.321 14.268,-101.924 14.501,-102.727C14.592,-103.038 14.625,-103.362 14.585,-103.682C14.48,-104.516 14.124,-105.342 13.378,-106.198C13.357,-106.227 13.322,-106.256 13.298,-106.28C13.353,-106.28 13.402,-106.278 13.458,-106.28C14.4,-106.313 15.608,-106.567 15.893,-107.604C15.891,-107.657 15.878,-107.704 15.876,-107.753C16.066,-108.458 16.253,-109.149 16.438,-109.821C16.493,-110.034 16.526,-110.253 16.522,-110.469C16.491,-111.454 16.044,-112.462 15.192,-113.467C14.977,-113.719 14.737,-113.977 14.471,-114.223C13.929,-114.743 13.284,-115.262 12.53,-115.772C7.264,-119.368 3.652,-120.786 0.717,-122.571C-2.218,-124.366 -0.999,-128.587 2.006,-127.016C4.16,-125.885 8.144,-123.682 11.75,-121.553C11.95,-121.438 12.134,-121.327 12.327,-121.208C14.892,-119.024 15.473,-117.53 15.473,-117.53L14.551,-114.303C14.818,-114.053 15.056,-113.797 15.271,-113.547C16.191,-113.581 17.517,-113.833 17.875,-114.956C17.871,-115.006 17.858,-115.051 17.854,-115.098C18.044,-115.811 18.227,-116.495 18.397,-117.135C18.508,-117.553 18.51,-117.991 18.391,-118.409C18.186,-119.12 17.883,-119.823 17.407,-120.528C17.172,-120.876 16.895,-121.219 16.569,-121.565L16.569,-121.569C16.055,-122.11 15.415,-122.655 14.614,-123.2C9.349,-126.797 5.736,-128.213 2.801,-130.003C-0.132,-131.792 1.085,-136.01 4.088,-134.44C6.2,-133.337 10.072,-131.192 13.623,-129.108C13.626,-129.108 13.626,-129.108 13.628,-129.102C13.827,-128.989 14.008,-128.878 14.202,-128.764C16.953,-126.424 17.558,-124.837 17.558,-124.837L16.649,-121.651L16.649,-121.647C16.977,-121.299 17.254,-120.956 17.487,-120.61C18.384,-120.827 19.529,-121.381 19.922,-122.754C19.917,-122.803 19.902,-122.848 19.897,-122.891C19.9,-122.897 19.901,-122.901 19.901,-122.905" style="fill:rgb(38,34,97);fill-rule:nonzero;"/>
            </g>
        </g>
        <g transform="matrix(4.16667,0,0,4.16667,0,0)">
            <g transform="matrix(1,0,0,1,206.844,458.469)">
                <path d="M0,-8.172C-0.375,-9.119 -0.73,-9.906 -1.354,-11.527C-1.949,-8.078 -4.015,-4.764 -3.281,-1.123C-2.937,0.586 -1.331,3.355 0.621,1.615C1.723,0.637 2.177,-1.881 1.888,-3.098C1.476,-4.844 0.664,-6.514 0,-8.172" style="fill:rgb(38,34,97);fill-rule:nonzero;"/>
            </g>
        </g>
        <g transform="matrix(4.16667,0,0,4.16667,0,0)">
            <g transform="matrix(1,0,0,1,375.638,226.801)">
                <path d="M0,2.323L0,-0.003C0,-0.152 0.099,-0.249 0.248,-0.249L11.304,-0.249C11.448,-0.249 11.549,-0.152 11.549,-0.003L11.549,2.323C11.549,2.472 11.448,2.572 11.304,2.572L0.248,2.572C0.099,2.572 0,2.472 0,2.323" style="fill:rgb(38,34,97);fill-rule:nonzero;"/>
            </g>
        </g>
        <g transform="matrix(4.16667,0,0,4.16667,0,0)">
            <g transform="matrix(1,0,0,1,375.886,221.042)">
                <path d="M0,-14.701L11.056,-14.701C11.2,-14.701 11.301,-14.602 11.301,-14.453L11.301,-12.362C11.301,-12.231 11.251,-12.131 11.137,-12.066L4.373,-2.823L11.056,-2.823C11.2,-2.823 11.301,-2.722 11.301,-2.576L11.301,-0.249C11.301,-0.1 11.2,0 11.056,0L0,0C-0.149,0 -0.248,-0.1 -0.248,-0.249L-0.248,-2.338C-0.248,-2.471 -0.199,-2.569 -0.083,-2.636L6.696,-11.88L0,-11.88C-0.149,-11.88 -0.248,-11.978 -0.248,-12.127L-0.248,-14.453C-0.248,-14.602 -0.149,-14.701 0,-14.701" style="fill:rgb(38,34,97);fill-rule:nonzero;"/>
            </g>
        </g>
        <g transform="matrix(4.16667,0,0,4.16667,0,0)">
            <g transform="matrix(1,0,0,1,375.886,193.261)">
                <path d="M0,-13.167L1.978,-13.167C2.128,-13.167 2.227,-13.068 2.227,-12.92L2.227,-7.995L11.056,-7.995C11.2,-7.995 11.301,-7.896 11.301,-7.746L11.301,-5.421C11.301,-5.271 11.2,-5.173 11.056,-5.173L2.227,-5.173L2.227,-0.249C2.227,-0.1 2.128,0 1.978,0L0,0C-0.149,0 -0.248,-0.1 -0.248,-0.249L-0.248,-12.92C-0.248,-13.068 -0.149,-13.167 0,-13.167" style="fill:rgb(38,34,97);fill-rule:nonzero;"/>
            </g>
        </g>
        <g transform="matrix(4.16667,0,0,4.16667,0,0)">
            <g transform="matrix(1,0,0,1,375.886,174.899)">
                <path d="M0,-14.387L11.056,-14.387C11.2,-14.387 11.301,-14.287 11.301,-14.139L11.301,-11.812C11.301,-11.665 11.2,-11.565 11.056,-11.565L6.896,-11.565L6.896,-2.822L11.056,-2.822C11.2,-2.822 11.301,-2.722 11.301,-2.574L11.301,-0.247C11.301,-0.099 11.2,0 11.056,0L0,0C-0.149,0 -0.248,-0.099 -0.248,-0.247L-0.248,-2.574C-0.248,-2.722 -0.149,-2.822 0,-2.822L4.422,-2.822L4.422,-11.565L0,-11.565C-0.149,-11.565 -0.248,-11.665 -0.248,-11.812L-0.248,-14.139C-0.248,-14.287 -0.149,-14.387 0,-14.387" style="fill:rgb(38,34,97);fill-rule:nonzero;"/>
            </g>
        </g>
        <g transform="matrix(4.16667,0,0,4.16667,0,0)">
            <g transform="matrix(1,0,0,1,384.958,154.987)">
                <path d="M0,-11.796L1.983,-11.796C2.128,-11.796 2.229,-11.697 2.229,-11.55L2.229,-0.247C2.229,-0.099 2.128,0 1.983,0L-9.072,0C-9.222,0 -9.32,-0.099 -9.32,-0.247L-9.32,-11.533C-9.32,-11.68 -9.222,-11.78 -9.072,-11.78L-7.095,-11.78C-6.944,-11.78 -6.846,-11.68 -6.846,-11.533L-6.846,-2.821L-4.866,-2.821L-4.866,-11.301C-4.866,-11.451 -4.768,-11.55 -4.619,-11.55L-2.64,-11.55C-2.49,-11.55 -2.39,-11.451 -2.39,-11.301L-2.39,-2.821L-0.247,-2.821L-0.247,-11.55C-0.247,-11.697 -0.146,-11.796 0,-11.796" style="fill:rgb(38,34,97);fill-rule:nonzero;"/>
            </g>
        </g>
    </g>
</svg>
